<mxfile host="app.diagrams.net" agent="Mozilla/5.0 (Windows NT 10.0; Win64; x64) AppleWebKit/537.36 (KHTML, like Gecko) Chrome/141.0.0.0 Safari/537.36 Edg/141.0.0.0" version="28.2.8">
  <diagram name="Page-1" id="TpqIOYvmqBLN8F_iVT4d">
    <mxGraphModel dx="2733" dy="1223" grid="1" gridSize="10" guides="1" tooltips="1" connect="1" arrows="1" fold="1" page="1" pageScale="1" pageWidth="850" pageHeight="1100" math="0" shadow="0">
      <root>
        <mxCell id="0" />
        <mxCell id="1" parent="0" />
        <mxCell id="BYWCTC_YHFioQ1aKu94v-1" value="IModule" style="rounded=1;whiteSpace=wrap;html=1;" vertex="1" parent="1">
          <mxGeometry x="210" y="40" width="80" height="40" as="geometry" />
        </mxCell>
        <mxCell id="BYWCTC_YHFioQ1aKu94v-8" style="edgeStyle=orthogonalEdgeStyle;rounded=0;orthogonalLoop=1;jettySize=auto;html=1;exitX=0.5;exitY=0;exitDx=0;exitDy=0;entryX=0.5;entryY=1;entryDx=0;entryDy=0;" edge="1" parent="1" source="BYWCTC_YHFioQ1aKu94v-2" target="BYWCTC_YHFioQ1aKu94v-1">
          <mxGeometry relative="1" as="geometry" />
        </mxCell>
        <mxCell id="BYWCTC_YHFioQ1aKu94v-2" value="ISearchMod" style="rounded=1;whiteSpace=wrap;html=1;" vertex="1" parent="1">
          <mxGeometry x="450" y="140" width="80" height="40" as="geometry" />
        </mxCell>
        <mxCell id="BYWCTC_YHFioQ1aKu94v-6" value="" style="edgeStyle=orthogonalEdgeStyle;rounded=0;orthogonalLoop=1;jettySize=auto;html=1;" edge="1" parent="1" source="BYWCTC_YHFioQ1aKu94v-3" target="BYWCTC_YHFioQ1aKu94v-1">
          <mxGeometry relative="1" as="geometry" />
        </mxCell>
        <mxCell id="BYWCTC_YHFioQ1aKu94v-3" value="IAnalysisMod" style="rounded=1;whiteSpace=wrap;html=1;" vertex="1" parent="1">
          <mxGeometry x="210" y="140" width="80" height="40" as="geometry" />
        </mxCell>
        <mxCell id="BYWCTC_YHFioQ1aKu94v-7" style="edgeStyle=orthogonalEdgeStyle;rounded=0;orthogonalLoop=1;jettySize=auto;html=1;exitX=0.5;exitY=0;exitDx=0;exitDy=0;entryX=0.5;entryY=1;entryDx=0;entryDy=0;" edge="1" parent="1" source="BYWCTC_YHFioQ1aKu94v-4" target="BYWCTC_YHFioQ1aKu94v-1">
          <mxGeometry relative="1" as="geometry" />
        </mxCell>
        <mxCell id="BYWCTC_YHFioQ1aKu94v-4" value="IDBMod" style="rounded=1;whiteSpace=wrap;html=1;" vertex="1" parent="1">
          <mxGeometry x="-70" y="140" width="80" height="40" as="geometry" />
        </mxCell>
        <mxCell id="BYWCTC_YHFioQ1aKu94v-9" value="Importer / Exporter" style="rounded=1;whiteSpace=wrap;html=1;" vertex="1" parent="1">
          <mxGeometry x="650" y="530" width="120" height="40" as="geometry" />
        </mxCell>
        <mxCell id="BYWCTC_YHFioQ1aKu94v-10" value="ISearchMethod" style="rounded=1;whiteSpace=wrap;html=1;" vertex="1" parent="1">
          <mxGeometry x="560" y="170" width="120" height="40" as="geometry" />
        </mxCell>
        <mxCell id="BYWCTC_YHFioQ1aKu94v-11" value="IAnalyzer" style="rounded=1;whiteSpace=wrap;html=1;" vertex="1" parent="1">
          <mxGeometry x="320" y="170" width="90" height="40" as="geometry" />
        </mxCell>
        <mxCell id="BYWCTC_YHFioQ1aKu94v-13" value="" style="edgeStyle=orthogonalEdgeStyle;rounded=0;orthogonalLoop=1;jettySize=auto;html=1;" edge="1" parent="1" source="BYWCTC_YHFioQ1aKu94v-12" target="BYWCTC_YHFioQ1aKu94v-10">
          <mxGeometry relative="1" as="geometry" />
        </mxCell>
        <mxCell id="BYWCTC_YHFioQ1aKu94v-12" value="MySearcher" style="rounded=1;whiteSpace=wrap;html=1;" vertex="1" parent="1">
          <mxGeometry x="575" y="250" width="90" height="40" as="geometry" />
        </mxCell>
        <mxCell id="BYWCTC_YHFioQ1aKu94v-15" value="" style="edgeStyle=orthogonalEdgeStyle;rounded=0;orthogonalLoop=1;jettySize=auto;html=1;" edge="1" parent="1" source="BYWCTC_YHFioQ1aKu94v-14" target="BYWCTC_YHFioQ1aKu94v-11">
          <mxGeometry relative="1" as="geometry" />
        </mxCell>
        <mxCell id="BYWCTC_YHFioQ1aKu94v-14" value="MyAnalyzer" style="rounded=1;whiteSpace=wrap;html=1;" vertex="1" parent="1">
          <mxGeometry x="320" y="250" width="90" height="40" as="geometry" />
        </mxCell>
        <mxCell id="BYWCTC_YHFioQ1aKu94v-17" value="" style="edgeStyle=orthogonalEdgeStyle;rounded=0;orthogonalLoop=1;jettySize=auto;html=1;" edge="1" parent="1" source="BYWCTC_YHFioQ1aKu94v-16" target="BYWCTC_YHFioQ1aKu94v-2">
          <mxGeometry relative="1" as="geometry" />
        </mxCell>
        <mxCell id="BYWCTC_YHFioQ1aKu94v-16" value="MySearchMod" style="rounded=1;whiteSpace=wrap;html=1;" vertex="1" parent="1">
          <mxGeometry x="445" y="370" width="90" height="40" as="geometry" />
        </mxCell>
        <mxCell id="BYWCTC_YHFioQ1aKu94v-20" value="" style="endArrow=open;endSize=12;dashed=1;html=1;rounded=0;exitX=0.5;exitY=0;exitDx=0;exitDy=0;entryX=0.5;entryY=1;entryDx=0;entryDy=0;edgeStyle=orthogonalEdgeStyle;" edge="1" parent="1" source="BYWCTC_YHFioQ1aKu94v-16" target="BYWCTC_YHFioQ1aKu94v-12">
          <mxGeometry width="160" relative="1" as="geometry">
            <mxPoint x="610" y="250" as="sourcePoint" />
            <mxPoint x="770" y="250" as="targetPoint" />
            <Array as="points">
              <mxPoint x="490" y="340" />
              <mxPoint x="620" y="340" />
            </Array>
          </mxGeometry>
        </mxCell>
        <mxCell id="BYWCTC_YHFioQ1aKu94v-22" style="edgeStyle=orthogonalEdgeStyle;rounded=0;orthogonalLoop=1;jettySize=auto;html=1;exitX=0.5;exitY=0;exitDx=0;exitDy=0;entryX=0.5;entryY=1;entryDx=0;entryDy=0;" edge="1" parent="1" source="BYWCTC_YHFioQ1aKu94v-21" target="BYWCTC_YHFioQ1aKu94v-3">
          <mxGeometry relative="1" as="geometry" />
        </mxCell>
        <mxCell id="BYWCTC_YHFioQ1aKu94v-21" value="MyAnalysisMod" style="rounded=1;whiteSpace=wrap;html=1;" vertex="1" parent="1">
          <mxGeometry x="197.5" y="370" width="105" height="40" as="geometry" />
        </mxCell>
        <mxCell id="BYWCTC_YHFioQ1aKu94v-23" value="" style="endArrow=open;endSize=12;dashed=1;html=1;rounded=0;exitX=0.5;exitY=0;exitDx=0;exitDy=0;entryX=0.5;entryY=1;entryDx=0;entryDy=0;edgeStyle=orthogonalEdgeStyle;" edge="1" parent="1" source="BYWCTC_YHFioQ1aKu94v-21" target="BYWCTC_YHFioQ1aKu94v-14">
          <mxGeometry width="160" relative="1" as="geometry">
            <mxPoint x="570" y="420" as="sourcePoint" />
            <mxPoint x="700" y="340" as="targetPoint" />
            <Array as="points">
              <mxPoint x="250" y="340" />
              <mxPoint x="365" y="340" />
            </Array>
          </mxGeometry>
        </mxCell>
        <mxCell id="BYWCTC_YHFioQ1aKu94v-24" value="IDB" style="rounded=1;whiteSpace=wrap;html=1;" vertex="1" parent="1">
          <mxGeometry x="50" y="170" width="80" height="40" as="geometry" />
        </mxCell>
        <mxCell id="BYWCTC_YHFioQ1aKu94v-29" value="" style="edgeStyle=orthogonalEdgeStyle;rounded=0;orthogonalLoop=1;jettySize=auto;html=1;" edge="1" parent="1" source="BYWCTC_YHFioQ1aKu94v-27" target="BYWCTC_YHFioQ1aKu94v-24">
          <mxGeometry relative="1" as="geometry" />
        </mxCell>
        <mxCell id="BYWCTC_YHFioQ1aKu94v-27" value="MyDB" style="rounded=1;whiteSpace=wrap;html=1;" vertex="1" parent="1">
          <mxGeometry x="45" y="250" width="90" height="40" as="geometry" />
        </mxCell>
        <mxCell id="BYWCTC_YHFioQ1aKu94v-30" style="edgeStyle=orthogonalEdgeStyle;rounded=0;orthogonalLoop=1;jettySize=auto;html=1;entryX=0.5;entryY=1;entryDx=0;entryDy=0;" edge="1" parent="1" source="BYWCTC_YHFioQ1aKu94v-28" target="BYWCTC_YHFioQ1aKu94v-4">
          <mxGeometry relative="1" as="geometry">
            <mxPoint x="-40" y="190" as="targetPoint" />
          </mxGeometry>
        </mxCell>
        <mxCell id="BYWCTC_YHFioQ1aKu94v-28" value="MyDBMod" style="rounded=1;whiteSpace=wrap;html=1;" vertex="1" parent="1">
          <mxGeometry x="-82.5" y="370" width="105" height="40" as="geometry" />
        </mxCell>
        <mxCell id="BYWCTC_YHFioQ1aKu94v-31" value="" style="endArrow=open;endSize=12;dashed=1;html=1;rounded=0;exitX=0.5;exitY=0;exitDx=0;exitDy=0;entryX=0.5;entryY=1;entryDx=0;entryDy=0;edgeStyle=orthogonalEdgeStyle;" edge="1" parent="1" source="BYWCTC_YHFioQ1aKu94v-28" target="BYWCTC_YHFioQ1aKu94v-27">
          <mxGeometry width="160" relative="1" as="geometry">
            <mxPoint x="-30" y="380" as="sourcePoint" />
            <mxPoint x="85" y="300" as="targetPoint" />
            <Array as="points">
              <mxPoint x="-30" y="340" />
              <mxPoint x="90" y="340" />
            </Array>
          </mxGeometry>
        </mxCell>
        <mxCell id="BYWCTC_YHFioQ1aKu94v-32" value="ShardExtractor" style="rounded=1;whiteSpace=wrap;html=1;" vertex="1" parent="1">
          <mxGeometry x="260" y="447" width="100" height="40" as="geometry" />
        </mxCell>
        <mxCell id="BYWCTC_YHFioQ1aKu94v-33" value="ISearchable" style="rounded=1;whiteSpace=wrap;html=1;" vertex="1" parent="1">
          <mxGeometry x="140" y="447" width="90" height="40" as="geometry" />
        </mxCell>
        <mxCell id="BYWCTC_YHFioQ1aKu94v-34" value="TrajectoryGenerator" style="rounded=1;whiteSpace=wrap;html=1;" vertex="1" parent="1">
          <mxGeometry x="645" y="600" width="130" height="40" as="geometry" />
        </mxCell>
        <mxCell id="BYWCTC_YHFioQ1aKu94v-35" value="PointGroup" style="rounded=1;whiteSpace=wrap;html=1;" vertex="1" parent="1">
          <mxGeometry x="645" y="660" width="130" height="40" as="geometry" />
        </mxCell>
        <mxCell id="BYWCTC_YHFioQ1aKu94v-37" value="" style="edgeStyle=orthogonalEdgeStyle;rounded=0;orthogonalLoop=1;jettySize=auto;html=1;" edge="1" parent="1" source="BYWCTC_YHFioQ1aKu94v-36" target="BYWCTC_YHFioQ1aKu94v-33">
          <mxGeometry relative="1" as="geometry" />
        </mxCell>
        <mxCell id="BYWCTC_YHFioQ1aKu94v-36" value="Shard" style="rounded=1;whiteSpace=wrap;html=1;" vertex="1" parent="1">
          <mxGeometry x="140" y="517" width="90" height="40" as="geometry" />
        </mxCell>
        <mxCell id="BYWCTC_YHFioQ1aKu94v-41" value="" style="edgeStyle=orthogonalEdgeStyle;rounded=0;orthogonalLoop=1;jettySize=auto;html=1;" edge="1" parent="1" source="BYWCTC_YHFioQ1aKu94v-38" target="BYWCTC_YHFioQ1aKu94v-40">
          <mxGeometry relative="1" as="geometry" />
        </mxCell>
        <mxCell id="BYWCTC_YHFioQ1aKu94v-38" value="pFq-Formatter" style="rounded=1;whiteSpace=wrap;html=1;" vertex="1" parent="1">
          <mxGeometry x="-87.5" y="516" width="120" height="40" as="geometry" />
        </mxCell>
        <mxCell id="BYWCTC_YHFioQ1aKu94v-40" value="IFormatter" style="rounded=1;whiteSpace=wrap;html=1;" vertex="1" parent="1">
          <mxGeometry x="-87.5" y="446" width="120" height="40" as="geometry" />
        </mxCell>
        <mxCell id="BYWCTC_YHFioQ1aKu94v-42" value="ISerializable" style="rounded=1;whiteSpace=wrap;html=1;" vertex="1" parent="1">
          <mxGeometry x="365" y="760" width="110" height="40" as="geometry" />
        </mxCell>
        <mxCell id="BYWCTC_YHFioQ1aKu94v-44" value="" style="edgeStyle=orthogonalEdgeStyle;rounded=0;orthogonalLoop=1;jettySize=auto;html=1;" edge="1" parent="1" source="BYWCTC_YHFioQ1aKu94v-43" target="BYWCTC_YHFioQ1aKu94v-42">
          <mxGeometry relative="1" as="geometry" />
        </mxCell>
        <mxCell id="BYWCTC_YHFioQ1aKu94v-43" value="SearchVector" style="rounded=1;whiteSpace=wrap;html=1;" vertex="1" parent="1">
          <mxGeometry x="360" y="870" width="120" height="40" as="geometry" />
        </mxCell>
        <mxCell id="BYWCTC_YHFioQ1aKu94v-46" style="edgeStyle=orthogonalEdgeStyle;rounded=0;orthogonalLoop=1;jettySize=auto;html=1;entryX=0.5;entryY=1;entryDx=0;entryDy=0;" edge="1" parent="1" source="BYWCTC_YHFioQ1aKu94v-45" target="BYWCTC_YHFioQ1aKu94v-42">
          <mxGeometry relative="1" as="geometry">
            <Array as="points">
              <mxPoint x="585" y="840" />
              <mxPoint x="420" y="840" />
            </Array>
          </mxGeometry>
        </mxCell>
        <mxCell id="BYWCTC_YHFioQ1aKu94v-45" value="SearchData" style="rounded=1;whiteSpace=wrap;html=1;" vertex="1" parent="1">
          <mxGeometry x="500" y="870" width="130" height="40" as="geometry" />
        </mxCell>
        <mxCell id="BYWCTC_YHFioQ1aKu94v-48" style="edgeStyle=orthogonalEdgeStyle;rounded=0;orthogonalLoop=1;jettySize=auto;html=1;entryX=0.5;entryY=1;entryDx=0;entryDy=0;" edge="1" parent="1" source="BYWCTC_YHFioQ1aKu94v-47" target="BYWCTC_YHFioQ1aKu94v-42">
          <mxGeometry relative="1" as="geometry">
            <Array as="points">
              <mxPoint x="280" y="840" />
              <mxPoint x="420" y="840" />
            </Array>
          </mxGeometry>
        </mxCell>
        <mxCell id="BYWCTC_YHFioQ1aKu94v-47" value="Position" style="rounded=1;whiteSpace=wrap;html=1;" vertex="1" parent="1">
          <mxGeometry x="220" y="870" width="120" height="40" as="geometry" />
        </mxCell>
        <mxCell id="BYWCTC_YHFioQ1aKu94v-49" value="System" style="rounded=1;whiteSpace=wrap;html=1;fillColor=#D5E8D4;" vertex="1" parent="1">
          <mxGeometry x="650" y="40" width="120" height="40" as="geometry" />
        </mxCell>
        <mxCell id="BYWCTC_YHFioQ1aKu94v-50" value="Configurable" style="rounded=1;whiteSpace=wrap;html=1;" vertex="1" parent="1">
          <mxGeometry x="-390" y="120" width="120" height="40" as="geometry" />
        </mxCell>
        <mxCell id="BYWCTC_YHFioQ1aKu94v-53" style="edgeStyle=orthogonalEdgeStyle;rounded=0;orthogonalLoop=1;jettySize=auto;html=1;exitX=0;exitY=0.5;exitDx=0;exitDy=0;entryX=0.5;entryY=1;entryDx=0;entryDy=0;" edge="1" parent="1" source="BYWCTC_YHFioQ1aKu94v-51" target="BYWCTC_YHFioQ1aKu94v-50">
          <mxGeometry relative="1" as="geometry" />
        </mxCell>
        <mxCell id="BYWCTC_YHFioQ1aKu94v-51" value="DBConfig" style="rounded=1;whiteSpace=wrap;html=1;" vertex="1" parent="1">
          <mxGeometry x="-305" y="230" width="110" height="40" as="geometry" />
        </mxCell>
        <mxCell id="BYWCTC_YHFioQ1aKu94v-54" style="edgeStyle=orthogonalEdgeStyle;rounded=0;orthogonalLoop=1;jettySize=auto;html=1;exitX=0;exitY=0.5;exitDx=0;exitDy=0;entryX=0.5;entryY=1;entryDx=0;entryDy=0;" edge="1" parent="1" source="BYWCTC_YHFioQ1aKu94v-52" target="BYWCTC_YHFioQ1aKu94v-50">
          <mxGeometry relative="1" as="geometry" />
        </mxCell>
        <mxCell id="BYWCTC_YHFioQ1aKu94v-52" value="AnalysisConfig" style="rounded=1;whiteSpace=wrap;html=1;" vertex="1" parent="1">
          <mxGeometry x="-305" y="280" width="110" height="40" as="geometry" />
        </mxCell>
        <mxCell id="BYWCTC_YHFioQ1aKu94v-56" style="edgeStyle=orthogonalEdgeStyle;rounded=0;orthogonalLoop=1;jettySize=auto;html=1;exitX=0;exitY=0.5;exitDx=0;exitDy=0;entryX=0.5;entryY=1;entryDx=0;entryDy=0;" edge="1" parent="1" source="BYWCTC_YHFioQ1aKu94v-55" target="BYWCTC_YHFioQ1aKu94v-50">
          <mxGeometry relative="1" as="geometry" />
        </mxCell>
        <mxCell id="BYWCTC_YHFioQ1aKu94v-55" value="SearchConfig" style="rounded=1;whiteSpace=wrap;html=1;" vertex="1" parent="1">
          <mxGeometry x="-305" y="330" width="110" height="40" as="geometry" />
        </mxCell>
        <mxCell id="BYWCTC_YHFioQ1aKu94v-58" style="edgeStyle=orthogonalEdgeStyle;rounded=0;orthogonalLoop=1;jettySize=auto;html=1;exitX=0;exitY=0.5;exitDx=0;exitDy=0;entryX=0.5;entryY=1;entryDx=0;entryDy=0;" edge="1" parent="1" source="BYWCTC_YHFioQ1aKu94v-57" target="BYWCTC_YHFioQ1aKu94v-50">
          <mxGeometry relative="1" as="geometry" />
        </mxCell>
        <mxCell id="BYWCTC_YHFioQ1aKu94v-57" value="SystemConfig" style="rounded=1;whiteSpace=wrap;html=1;" vertex="1" parent="1">
          <mxGeometry x="-305" y="380" width="110" height="40" as="geometry" />
        </mxCell>
      </root>
    </mxGraphModel>
  </diagram>
</mxfile>
